<?xml version="1.0" standalone="no"?>
<!DOCTYPE svg PUBLIC "-//W3C//DTD SVG 20010904//EN"
 "http://www.w3.org/TR/2001/REC-SVG-20010904/DTD/svg10.dtd">
<svg version="1.0" xmlns="http://www.w3.org/2000/svg"
 width="810.000000pt" height="810.000000pt" viewBox="0 0 810.000000 810.000000"
 preserveAspectRatio="xMidYMid meet">
<metadata>
Created by potrace 1.11, written by Peter Selinger 2001-2013
</metadata>
<g transform="translate(0.000000,810.000000) scale(0.100000,-0.100000)"
fill="#000000" stroke="none">
<path d="M3511 6668 c-37 -27 -51 -31 -110 -32 -86 -1 -128 -28 -240 -153 -45
-51 -105 -112 -132 -135 -28 -24 -60 -59 -70 -78 -11 -19 -41 -71 -68 -116
-47 -80 -71 -165 -71 -254 0 -34 -11 -57 -57 -116 -18 -23 -40 -60 -49 -83 -9
-23 -26 -49 -38 -57 -14 -11 -17 -18 -8 -21 14 -5 17 -43 3 -43 -5 0 -11 6
-14 13 -7 19 -17 3 -32 -49 -7 -27 -16 -57 -20 -66 -4 -11 -3 -18 4 -18 6 0
11 8 12 18 1 37 16 -23 18 -73 1 -39 -1 -47 -10 -35 -9 12 -10 11 -4 -5 4 -11
9 -65 11 -120 3 -96 23 -192 66 -332 14 -46 18 -86 16 -160 -1 -54 2 -128 6
-165 10 -76 -1 -105 -34 -88 -9 5 -20 6 -24 3 -9 -9 -7 -225 3 -312 7 -53 15
-79 28 -90 15 -13 18 -30 18 -96 -1 -44 4 -86 9 -92 6 -7 25 -28 41 -45 17
-18 37 -44 46 -58 22 -33 34 -19 20 22 -10 29 -9 35 9 50 20 16 22 15 53 -17
33 -35 135 -95 160 -95 24 0 84 -62 103 -107 10 -24 21 -43 26 -43 4 0 8 -7 8
-15 0 -8 18 -52 40 -99 22 -46 40 -89 40 -95 0 -11 53 -134 72 -166 7 -11 25
-44 41 -72 16 -29 33 -53 38 -53 5 0 9 -6 9 -13 0 -29 211 -217 244 -217 9 0
16 -6 16 -14 0 -8 6 -16 13 -19 7 -2 21 -23 32 -45 11 -22 23 -38 27 -36 5 3
8 -3 8 -13 0 -11 5 -24 12 -31 9 -9 9 -12 0 -12 -7 0 -12 -16 -12 -40 0 -22 4
-40 9 -40 13 0 51 -177 51 -236 0 -37 5 -56 21 -73 l21 -22 -22 -6 c-17 -5
-21 -12 -18 -34 4 -27 2 -29 -30 -29 -29 0 -34 -3 -29 -20 8 -31 -17 -43 -76
-37 l-52 5 4 -45 c3 -40 1 -44 -17 -41 -12 2 -27 -5 -34 -15 -13 -17 -15 -17
-43 8 -17 14 -41 28 -55 32 -14 3 -41 14 -60 24 -19 10 -53 26 -75 36 l-40 18
38 3 c35 3 38 6 35 30 -3 28 3 25 -233 115 -75 29 -101 34 -155 32 -36 -1 -68
-3 -72 -4 -5 0 -8 -14 -8 -29 0 -43 51 -87 103 -88 60 -2 159 -22 171 -34 5
-5 23 -10 39 -10 32 0 67 -16 67 -31 0 -6 -8 -9 -17 -8 -35 3 -76 -1 -70 -8 4
-3 1 -13 -7 -22 -7 -9 -16 -28 -20 -43 -5 -24 0 -32 48 -68 31 -22 62 -40 69
-40 21 0 85 -28 92 -40 4 -7 19 -9 35 -5 16 3 37 1 47 -6 16 -10 24 -8 41 7
12 10 22 24 22 31 0 6 6 16 13 20 8 4 17 17 22 28 8 18 9 17 13 -8 3 -25 7
-28 29 -22 14 3 22 2 19 -4 -3 -5 2 -12 12 -16 16 -6 16 -7 0 -16 -12 -7 -25
-6 -39 1 -30 17 -51 5 -43 -24 7 -28 -29 -71 -52 -62 -8 3 -14 0 -14 -7 0 -7
-5 -4 -11 6 -9 16 -13 17 -27 4 -14 -12 -34 -12 -110 -4 -66 6 -97 6 -105 -2
-13 -13 -37 -79 -37 -103 0 -10 -7 -18 -15 -18 -11 0 -14 -7 -9 -24 5 -20 1
-24 -25 -29 -17 -4 -38 -4 -46 -1 -12 5 -15 -4 -15 -50 0 -39 4 -55 13 -53 7
1 11 -7 9 -22 -4 -34 -8 -36 -39 -17 -25 16 -25 14 5 -14 l33 -31 -28 7 c-32
7 -56 32 -49 51 3 7 1 14 -4 14 -6 1 -14 3 -20 4 -5 1 -14 3 -20 4 -5 0 -10 8
-10 16 0 8 -9 23 -20 32 -11 10 -20 25 -20 35 0 22 -16 24 -24 3 -3 -8 -14
-15 -25 -15 -14 0 -22 -9 -26 -27 -11 -49 -20 -58 -62 -57 -22 0 -48 4 -59 8
-17 7 -17 9 9 22 15 8 37 12 48 9 15 -5 22 1 34 29 19 46 19 76 0 76 -9 0 -26
7 -39 15 -18 12 -37 14 -80 9 -31 -4 -59 -11 -62 -15 -3 -5 -13 -9 -22 -9 -10
0 -25 -12 -34 -28 -9 -15 -26 -36 -37 -46 -20 -18 -23 -18 -128 9 -152 39
-149 37 -157 83 -9 59 -21 65 -102 48 -38 -8 -81 -12 -96 -9 -32 6 -35 -3 -13
-34 10 -14 31 -24 60 -28 24 -4 52 -13 62 -21 16 -12 16 -15 3 -26 -23 -19
-55 -71 -52 -85 2 -7 -10 -19 -26 -27 -31 -16 -60 -46 -45 -46 5 0 13 4 19 9
5 5 32 12 59 16 l50 7 -23 -25 c-13 -13 -30 -47 -38 -73 l-15 -49 31 -27 c23
-22 30 -36 30 -66 0 -25 7 -45 18 -55 20 -19 67 -23 77 -7 3 6 30 10 60 10 30
0 57 5 60 10 3 6 19 10 35 10 16 0 32 5 35 10 3 6 18 10 33 10 39 0 68 24 82
66 12 37 7 84 -10 84 -6 0 -18 8 -28 18 -10 9 -29 23 -44 31 -32 17 -27 46 10
56 l27 7 -24 9 c-20 8 -21 11 -10 25 10 12 24 15 59 10 25 -3 68 -8 95 -11 57
-7 115 -33 115 -52 0 -7 -5 -24 -12 -38 -9 -20 -8 -31 2 -49 7 -15 10 -38 6
-56 -5 -26 -1 -37 23 -61 16 -16 39 -29 50 -29 11 0 22 -4 25 -9 3 -5 21 -12
41 -15 73 -14 165 66 165 144 0 64 5 66 125 51 149 -18 158 -21 167 -60 9 -32
12 -34 58 -45 41 -9 57 -23 43 -37 -12 -12 -9 -19 31 -59 11 -11 17 -22 15
-25 -7 -6 -59 18 -59 27 0 32 -212 65 -257 39 -11 -5 -23 -5 -34 2 -12 8 -25
5 -51 -11 -20 -12 -44 -22 -55 -22 -26 0 -68 -45 -57 -61 4 -7 7 -33 5 -57 -2
-35 4 -54 26 -86 15 -22 32 -44 38 -48 5 -4 -13 -8 -42 -8 -42 0 -54 -4 -63
-20 -6 -11 -22 -23 -35 -26 -50 -13 -18 -76 58 -114 15 -7 27 -17 27 -22 0 -5
4 -7 9 -3 6 3 29 1 53 -5 99 -23 124 -20 181 22 58 44 75 72 50 87 -14 7 -13
10 6 16 12 3 39 5 59 4 41 -4 104 9 112 22 3 5 23 21 44 37 33 24 39 35 40 70
1 23 -1 42 -6 42 -4 0 -5 7 -2 15 3 8 -1 21 -9 30 -14 14 -13 55 2 55 4 0 17
-9 29 -20 12 -11 30 -20 40 -20 19 0 62 -34 62 -50 0 -18 -24 -65 -43 -84 -15
-15 -18 -28 -14 -69 6 -48 18 -67 45 -67 17 0 15 -25 -3 -40 -8 -7 -15 -21
-15 -31 0 -11 -7 -19 -16 -19 -8 0 -13 4 -10 9 3 5 -1 22 -9 39 -15 30 -52 45
-91 37 -10 -2 -31 -6 -45 -9 -33 -7 -106 -77 -114 -109 -8 -30 23 -52 80 -56
45 -3 58 -9 50 -21 -3 -4 8 -21 24 -36 17 -15 28 -31 26 -34 -7 -11 -98 0
-109 14 -6 7 -22 21 -36 30 -14 9 -25 22 -25 28 0 7 -10 17 -22 24 -13 6 -31
18 -41 27 -23 21 -46 21 -77 1 -15 -10 -32 -13 -42 -9 -10 5 -24 7 -32 6 -7
-1 -10 2 -7 7 3 5 -12 9 -34 8 -22 0 -40 -2 -40 -3 0 -1 4 -13 9 -26 7 -19 5
-27 -10 -38 -30 -21 -23 -35 28 -60 50 -24 58 -25 88 -14 11 5 17 4 13 0 -5
-5 6 -21 23 -36 29 -26 30 -27 10 -34 -31 -9 -18 -52 28 -92 27 -24 50 -34 91
-39 116 -16 190 -6 190 27 0 11 9 39 20 61 24 50 25 68 5 68 -8 0 -15 5 -15
10 0 15 15 12 43 -10 14 -11 35 -20 46 -20 12 0 21 -6 21 -15 0 -9 6 -12 17
-8 10 4 14 2 10 -5 -12 -18 27 -19 61 0 17 10 32 14 32 9 0 -10 -61 -37 -110
-49 -38 -9 -56 -42 -22 -42 14 0 21 -10 28 -41 8 -36 14 -43 48 -54 21 -8 44
-11 51 -9 8 4 11 -2 8 -19 -5 -28 39 -81 99 -116 20 -12 39 -29 42 -37 3 -9
12 -14 19 -11 8 3 20 1 28 -4 12 -7 11 -12 -2 -36 -27 -46 -31 -92 -12 -124
l17 -29 1403 0 c798 0 1403 4 1403 9 0 5 -7 14 -16 22 -8 7 -13 21 -10 32 2
10 -4 27 -15 38 -11 11 -17 23 -15 28 6 10 102 29 161 32 22 2 55 -5 74 -14
43 -21 91 -23 91 -2 0 21 16 19 53 -8 42 -30 52 -39 59 -57 3 -8 25 -25 49
-38 24 -13 52 -28 61 -35 28 -19 32 -1 8 37 -12 20 -18 36 -14 36 13 0 -39 51
-84 82 -48 33 -46 53 4 45 28 -5 34 -3 34 12 0 15 10 18 63 18 34 1 77 -5 96
-13 18 -8 42 -14 52 -14 25 0 35 21 15 32 -24 14 -8 30 23 23 16 -3 34 0 46 8
17 13 15 15 -34 26 -28 6 -72 11 -96 11 -25 0 -45 5 -45 10 0 6 24 10 54 10
30 0 58 5 61 10 7 12 9 12 -75 14 -53 1 -80 8 -142 39 -42 20 -84 37 -93 37
-21 0 -105 49 -105 61 0 5 -6 9 -13 9 -14 0 -57 41 -57 53 0 17 40 5 64 -19
14 -15 26 -24 26 -20 0 13 -53 86 -62 86 -5 0 -8 10 -6 23 2 12 9 21 15 20 14
-3 26 60 18 97 -8 36 8 66 38 74 17 4 32 22 51 65 14 32 26 63 26 67 0 21 47
94 111 172 38 46 69 88 69 93 0 5 -11 7 -25 3 -19 -5 -25 -2 -25 9 0 32 -24
30 -51 -3 l-28 -33 -5 34 c-3 19 -8 72 -11 119 -3 47 -9 112 -14 145 -6 33 -8
61 -6 64 9 9 70 -25 102 -57 19 -19 37 -31 40 -28 13 12 -23 59 -86 113 -69
58 -125 140 -136 201 -4 20 -17 51 -31 71 -13 20 -24 41 -24 48 0 17 30 16 54
-2 11 -8 35 -15 53 -15 26 0 33 4 33 20 0 11 -4 20 -10 20 -5 0 -10 8 -10 19
0 35 -21 78 -44 89 -15 7 -25 22 -29 44 -3 19 -14 45 -26 59 -11 13 -33 40
-49 59 -18 21 -45 79 -67 145 -20 61 -43 117 -50 125 -7 8 -30 46 -50 85 -20
38 -45 79 -56 91 -10 11 -19 26 -19 32 0 7 -5 21 -12 32 -10 15 -9 23 7 40 17
19 17 22 3 36 -13 13 -14 22 -5 51 18 57 36 59 125 13 43 -22 85 -40 93 -40
27 -1 -42 -50 -70 -50 -15 0 -38 -9 -51 -20 -20 -17 -21 -20 -6 -26 10 -4 22
-2 29 5 6 6 20 11 32 11 11 0 45 12 75 26 47 22 63 25 115 20 113 -12 135 -13
135 -6 0 8 -119 44 -191 59 -20 4 -58 21 -85 36 -27 16 -84 46 -126 67 l-78
39 0 59 c0 61 -2 65 -54 108 -21 17 -31 15 -74 -12 -38 -25 -97 -26 -89 -2 4
11 37 30 70 40 23 7 50 72 43 101 -4 14 -18 27 -36 34 -26 9 -33 7 -50 -12
l-20 -21 -16 22 c-8 12 -24 22 -34 22 -10 0 -22 9 -25 20 -6 17 -15 20 -76 20
-67 0 -70 1 -89 33 -11 17 -20 40 -20 50 0 10 -5 27 -11 38 -9 17 -13 18 -27
7 -14 -11 -15 -11 -9 5 5 14 2 20 -14 24 -18 5 -20 12 -17 47 6 55 -18 251
-36 303 -23 62 -31 165 -16 193 10 20 10 25 -3 35 -15 11 -49 116 -68 210 -10
53 -19 75 -30 75 -5 0 -9 9 -9 21 0 11 -18 58 -40 104 -22 46 -40 89 -40 95 0
15 -67 233 -85 276 -8 20 -15 55 -15 77 0 47 -28 155 -45 177 -21 26 -97 198
-132 300 -38 111 -166 364 -220 436 -13 17 -23 37 -23 45 0 9 -16 30 -35 49
-36 35 -44 55 -23 62 6 2 -6 17 -28 33 -50 36 -77 68 -113 130 -38 66 -86 113
-172 166 -39 24 -106 68 -149 97 -44 28 -86 52 -94 52 -8 0 -18 5 -21 10 -9
14 -121 70 -139 70 -9 0 -35 6 -58 14 -24 7 -61 18 -83 24 -22 5 -71 19 -110
30 -249 70 -229 67 -420 67 -99 0 -232 -6 -296 -14 -105 -13 -118 -12 -140 3
-24 15 -27 15 -68 -16z m-824 -1181 c-3 -21 -4 -20 -15 6 -7 16 -9 33 -6 39
10 16 26 -19 21 -45z m3097 -363 c11 -28 6 -39 -9 -20 -8 11 -15 23 -15 28 0
14 18 9 24 -8z m26 -99 c0 -8 -2 -15 -4 -15 -2 0 -6 7 -10 15 -3 8 -1 15 4 15
6 0 10 -7 10 -15z m39 -97 c31 -62 38 -88 23 -88 -8 0 -62 122 -62 140 0 21 9
8 39 -52z m195 -673 c3 -8 1 -15 -3 -15 -5 0 -11 7 -15 15 -3 8 -1 15 3 15 5
0 11 -7 15 -15z m464 -1098 c5 -22 -24 -33 -44 -16 -14 12 -14 14 2 26 22 16
38 12 42 -10z m90 -186 c15 -16 38 -31 52 -33 18 -2 26 -11 31 -36 6 -32 -4
-52 -16 -32 -3 5 -19 10 -35 10 -20 0 -37 10 -59 35 -33 37 -35 44 -25 69 9
23 22 20 52 -13z m-2548 -721 c0 -6 -11 -21 -24 -33 -14 -13 -28 -35 -31 -50
-6 -24 -3 -29 30 -43 33 -13 36 -18 30 -42 -9 -35 -9 -36 -54 -37 -22 0 -46
-7 -54 -13 -18 -16 -108 -6 -134 14 -16 12 -16 13 -2 14 9 0 19 7 23 15 6 17
46 21 46 5 0 -5 5 -10 11 -10 6 0 8 8 4 19 -5 15 -1 18 20 14 13 -3 32 -2 41
1 13 5 14 9 4 21 -10 12 -9 16 4 21 15 6 15 9 -5 30 l-22 24 28 22 c25 20 54
34 78 37 4 1 7 -4 7 -9z m-230 -56 c0 -2 -7 -4 -15 -4 -8 0 -15 4 -15 10 0 5
7 7 15 4 8 -4 15 -8 15 -10z m218 -47 c5 -24 -15 -21 -21 4 -3 13 -1 19 6 16
7 -2 13 -11 15 -20z m57 -257 c7 -12 -12 -40 -26 -40 -5 0 -9 11 -9 25 0 25
23 35 35 15z m-955 -220 c0 -5 -4 -10 -10 -10 -5 0 -10 5 -10 10 0 6 5 10 10
10 6 0 10 -4 10 -10z m-875 -110 c-3 -5 -13 -10 -21 -10 -8 0 -12 5 -9 10 3 6
13 10 21 10 8 0 12 -4 9 -10z m1610 -387 c-8 -16 -9 -16 -12 5 -5 25 -21 29
-29 7 -4 -8 -11 -15 -17 -15 -6 0 0 11 13 25 21 22 26 24 38 11 10 -9 12 -21
7 -33z m-115 -3 c0 -5 -2 -10 -4 -10 -3 0 -8 5 -11 10 -3 6 -1 10 4 10 6 0 11
-4 11 -10z m40 -20 c0 -5 -2 -10 -4 -10 -3 0 -8 5 -11 10 -3 6 -1 10 4 10 6 0
11 -4 11 -10z m-620 -90 c0 -15 -46 -31 -66 -23 -14 5 -13 8 7 19 29 16 59 18
59 4z m550 -210 c0 -5 -9 -10 -20 -10 -11 0 -20 5 -20 10 0 6 9 10 20 10 11 0
20 -4 20 -10z m230 -89 c0 -22 -16 -36 -24 -22 -8 12 3 41 15 41 5 0 9 -9 9
-19z m-50 -101 c0 -5 -5 -10 -11 -10 -5 0 -7 5 -4 10 3 6 8 10 11 10 2 0 4 -4
4 -10z m-33 -34 c-7 -17 18 -40 33 -31 11 7 13 -5 4 -29 -7 -17 -50 -21 -72
-7 -11 7 -11 9 2 14 10 4 16 18 16 37 0 16 5 30 11 30 6 0 9 -6 6 -14z"/>
<path d="M591 3519 c-6 -18 -11 -42 -11 -54 0 -13 -6 -28 -14 -34 -22 -19 -68
-130 -61 -150 3 -11 17 -31 32 -45 23 -23 25 -30 15 -51 -7 -14 -20 -25 -31
-25 -31 0 -38 -57 -14 -106 41 -83 48 -120 35 -196 -12 -68 -12 -72 10 -95 22
-24 81 -32 93 -13 3 6 17 10 29 10 50 0 61 36 60 188 -1 88 -5 120 -19 146
-16 29 -17 42 -7 107 7 45 7 77 2 84 -21 26 -57 144 -59 194 -2 64 -6 71 -31
71 -11 0 -22 -12 -29 -31z m9 -309 c0 -5 -5 -10 -11 -10 -5 0 -7 5 -4 10 3 6
8 10 11 10 2 0 4 -4 4 -10z"/>
<path d="M2513 3523 c-15 -10 -23 -26 -23 -44 0 -23 8 -33 38 -49 20 -11 45
-26 55 -33 19 -13 43 -3 61 25 12 20 -31 81 -74 103 -34 18 -29 18 -57 -2z"/>
<path d="M1832 3508 c-25 -25 -7 -68 28 -68 20 0 42 43 34 65 -7 18 -45 20
-62 3z"/>
<path d="M6928 3503 c-24 -28 -27 -46 -17 -98 7 -40 5 -61 -13 -117 -21 -66
-22 -70 -5 -101 24 -44 70 -62 103 -40 33 21 39 54 20 112 -9 28 -16 74 -16
103 -1 57 -28 149 -46 155 -6 2 -17 -4 -26 -14z"/>
<path d="M7687 3468 c-11 -9 -19 -38 -25 -89 -10 -77 -29 -126 -62 -159 -19
-19 -19 -20 23 -60 23 -22 50 -40 60 -40 9 0 17 -4 17 -9 0 -5 13 -14 29 -21
35 -14 58 -1 104 58 33 43 34 56 2 87 -25 26 -65 106 -65 134 0 18 -21 79 -33
99 -5 6 -14 12 -21 12 -7 0 -20 -6 -29 -12z"/>
<path d="M7167 3383 c-4 -3 -7 -16 -7 -27 0 -24 -37 -125 -52 -143 -15 -18 19
-79 57 -103 46 -29 80 -25 125 13 48 39 54 81 16 116 -12 12 -33 45 -45 74
-14 34 -31 56 -49 65 -30 14 -36 15 -45 5z"/>
<path d="M1803 3283 c-7 -2 -13 -19 -13 -36 0 -17 -9 -50 -21 -74 -18 -36 -20
-58 -17 -131 3 -75 7 -93 32 -133 l29 -45 56 9 c98 16 107 39 67 172 -13 44
-30 106 -37 138 -9 43 -16 57 -28 55 -23 -4 -41 10 -41 33 0 19 -5 22 -27 12z"/>
<path d="M817 3183 c-11 -10 -8 -62 4 -84 7 -15 7 -24 -1 -34 -9 -11 -9 -25 3
-59 8 -24 13 -47 10 -50 -3 -3 0 -12 7 -21 7 -8 9 -22 5 -32 -4 -10 -7 -29 -6
-43 1 -14 -10 -49 -24 -77 -14 -29 -25 -62 -25 -73 0 -27 29 -70 46 -70 16 0
54 -57 54 -80 0 -13 47 -50 63 -50 3 0 12 12 22 26 15 23 15 27 0 50 -10 16
-15 40 -13 65 3 38 6 42 43 55 58 19 67 37 60 114 -7 81 -22 134 -51 181 -29
46 -110 148 -136 172 -21 17 -49 22 -61 10z m188 -393 c3 -6 3 -19 0 -30 -9
-27 -55 -28 -55 0 0 28 42 51 55 30z"/>
<path d="M3 2935 c0 -27 2 -38 4 -22 2 15 2 37 0 50 -2 12 -4 0 -4 -28z"/>
<path d="M3 2800 c0 -47 2 -66 4 -42 2 23 2 61 0 85 -2 23 -4 4 -4 -43z"/>
<path d="M1312 2409 c-57 -22 20 -56 84 -36 35 11 46 27 18 27 -8 0 -12 5 -9
10 3 6 -3 10 -15 10 -12 0 -18 -4 -15 -10 3 -5 -1 -10 -9 -10 -9 0 -16 5 -16
10 0 12 -7 12 -38 -1z"/>
<path d="M2645 2339 c-16 -4 -42 -19 -56 -32 -14 -13 -35 -30 -47 -36 -22 -12
-32 -61 -12 -61 27 0 90 43 123 83 50 61 49 63 -8 46z"/>
<path d="M2761 2261 c-6 -10 -8 -21 -5 -23 2 -3 -2 -11 -11 -18 -8 -7 -15 -22
-15 -35 0 -12 -11 -43 -25 -69 -26 -49 -32 -90 -15 -101 6 -3 10 -18 10 -31 0
-23 3 -25 30 -19 25 6 30 4 30 -13 0 -11 6 -24 13 -29 15 -12 88 -33 112 -33
10 0 26 -7 36 -16 21 -19 74 -11 83 12 3 8 11 14 19 14 7 0 24 14 36 31 20 27
22 34 11 55 -7 13 -31 35 -52 49 -44 29 -60 61 -46 89 8 14 4 31 -13 67 -23
50 -36 58 -57 37 -10 -10 -18 -6 -38 20 -20 25 -33 32 -59 32 -23 0 -38 -6
-44 -19z"/>
<path d="M2148 1994 c-45 -36 -89 -68 -95 -71 -7 -3 -13 -9 -13 -14 0 -13 113
41 143 69 26 25 63 82 53 82 -2 0 -42 -30 -88 -66z"/>
<path d="M2294 2013 c-39 -58 -46 -76 -32 -85 32 -21 121 25 126 65 3 21 -2
29 -23 37 -40 15 -51 12 -71 -17z"/>
<path d="M2471 1983 c-57 -11 -100 -63 -101 -120 0 -62 12 -123 25 -123 7 0
20 -12 30 -26 11 -18 22 -23 33 -19 9 4 23 8 30 9 8 1 17 7 20 12 4 5 24 17
44 28 37 19 52 43 62 104 4 24 2 34 -9 38 -8 4 -15 12 -15 19 0 11 -83 87 -92
84 -2 -1 -14 -4 -27 -6z"/>
<path d="M1960 1857 l-25 -10 23 -5 c26 -4 36 1 31 16 -3 6 -14 5 -29 -1z"/>
<path d="M7265 1816 c10 -15 13 -34 10 -49 -5 -20 0 -30 32 -56 34 -28 39 -30
50 -15 7 10 9 23 4 33 -5 9 -6 22 -4 29 7 20 -57 82 -84 82 -22 0 -23 -1 -8
-24z"/>
<path d="M7177 1793 c-16 -15 -5 -34 28 -50 47 -22 64 -7 35 30 -20 26 -49 35
-63 20z"/>
<path d="M1832 1692 c-14 -7 -42 -28 -62 -46 -28 -25 -35 -37 -27 -45 8 -8 6
-11 -7 -11 -9 0 -27 -5 -39 -12 -12 -6 -31 -12 -42 -12 -11 -1 -21 -5 -22 -11
-2 -6 42 -10 117 -10 109 0 123 2 143 21 36 33 62 44 104 44 31 0 46 7 73 35
27 28 31 38 21 48 -17 17 -226 17 -259 -1z"/>
<path d="M7462 1663 c-20 -41 -34 -134 -23 -161 5 -15 12 -36 14 -47 7 -40 36
53 37 122 2 95 1 103 -10 103 -5 0 -13 -8 -18 -17z"/>
<path d="M7381 1555 c-1 -21 15 -52 23 -45 2 3 -2 19 -9 35 -10 23 -14 25 -14
10z"/>
<path d="M1205 1452 c-45 -28 -104 -99 -138 -168 -37 -76 -33 -94 26 -94 40 0
46 3 63 35 20 38 22 39 44 25 9 -5 19 -5 26 1 8 6 21 6 38 -2 22 -10 31 -8 68
16 47 31 98 79 98 92 0 4 9 19 20 33 11 14 20 31 20 38 0 18 -59 15 -66 -3 -4
-8 -18 -15 -34 -15 -24 0 -27 3 -23 21 6 23 -1 23 -63 4 -16 -5 -23 -2 -27 14
-6 26 -14 26 -52 3z"/>
<path d="M1725 1360 c-3 -5 -19 -10 -35 -10 -42 0 -102 -54 -94 -85 4 -18 -2
-28 -28 -46 -18 -13 -41 -32 -51 -43 -18 -21 -18 -21 19 -29 20 -4 42 -3 48 1
18 14 55 21 61 11 3 -4 -1 -19 -9 -31 -28 -45 -28 -64 0 -97 38 -46 92 -44
161 7 30 21 55 48 59 62 3 14 15 44 26 67 46 98 33 131 -57 154 -62 16 -61 15
-45 34 11 13 8 15 -18 15 -17 0 -34 -4 -37 -10z"/>
<path d="M2712 1224 c-11 -12 -26 -14 -65 -9 -52 6 -52 6 -101 -44 l-49 -50
-1 -80 c-1 -74 1 -81 27 -109 15 -16 39 -35 52 -42 22 -12 26 -10 55 21 l31
34 -6 -49 c-6 -52 5 -76 36 -76 24 0 31 -27 18 -75 -6 -22 -13 -50 -16 -62 -3
-13 2 -28 16 -42 21 -21 33 -20 79 2 20 9 25 8 34 -7 8 -15 12 -16 19 -5 6 11
11 11 21 1 14 -14 48 -16 48 -2 0 6 9 19 20 30 11 11 20 17 20 13 0 -4 5 -2
12 5 16 16 -9 155 -34 182 -10 11 -23 20 -28 20 -5 0 -16 15 -25 33 -9 17 -21
40 -28 49 -16 20 -132 62 -147 53 -5 -3 -10 1 -10 9 0 23 20 30 47 15 24 -13
27 -12 60 26 59 68 56 84 -28 148 -41 31 -40 31 -57 11z"/>
<path d="M2294 1134 c-17 -8 -40 -32 -50 -52 -11 -20 -22 -38 -26 -40 -12 -6
-9 -55 5 -73 7 -8 20 -18 30 -22 10 -4 17 -17 17 -33 0 -37 22 -50 76 -45 37
2 47 8 54 27 5 13 13 24 18 24 5 0 13 10 19 23 11 24 2 61 -22 87 -8 8 -16 33
-18 55 -3 30 -10 43 -28 52 -31 16 -37 16 -75 -3z"/>
<path d="M990 1107 c-9 -7 -21 -25 -28 -42 -13 -32 -20 -120 -11 -130 11 -11
87 48 94 72 3 14 -2 42 -14 68 -22 50 -20 49 -41 32z"/>
<path d="M2047 1044 c-22 -8 -54 -27 -73 -44 -40 -35 -42 -35 -71 -15 -20 14
-24 14 -43 -7 -37 -39 -48 -61 -55 -115 -6 -45 -4 -53 9 -53 9 0 16 -4 16 -10
0 -5 -4 -9 -9 -7 -19 5 -70 -44 -76 -73 -15 -68 38 -120 121 -120 19 0 34 -3
34 -8 0 -4 17 -6 38 -5 44 3 92 -14 92 -32 0 -18 48 -48 66 -41 8 3 14 -1 14
-10 0 -22 31 -30 42 -11 11 21 32 22 24 2 -3 -8 -1 -15 4 -15 6 0 10 5 10 11
0 13 34 -28 43 -51 3 -9 6 -10 6 -2 1 6 10 12 20 12 13 0 21 -9 26 -29 9 -40
21 -47 85 -50 41 -2 59 -7 70 -22 17 -22 30 -16 30 13 0 11 7 18 20 18 28 0
60 35 60 66 0 14 -16 56 -35 94 -32 59 -41 69 -77 79 -29 9 -44 9 -51 2 -24
-24 -47 -12 -53 28 -8 53 -51 84 -105 79 -22 -2 -39 1 -39 7 0 5 -8 22 -18 37
l-17 26 -40 -19 c-22 -11 -69 -22 -105 -25 -35 -3 -66 -7 -68 -9 -7 -7 -42 15
-42 26 0 5 12 8 28 7 28 -2 114 54 156 101 19 21 27 97 15 148 -7 31 -9 32
-52 17z"/>
<path d="M1257 965 c-10 -7 -31 -40 -47 -73 -15 -33 -33 -63 -38 -66 -6 -4
-33 -8 -59 -10 -45 -4 -49 -6 -58 -38 -9 -34 -27 -58 -42 -58 -16 0 -53 -81
-53 -117 0 -19 10 -57 21 -84 19 -44 20 -55 10 -90 -7 -23 -10 -44 -7 -47 11
-10 52 19 69 48 16 27 16 29 -1 42 -46 32 -71 160 -39 200 23 30 103 85 133
91 80 16 124 30 124 41 0 6 7 22 17 35 21 30 26 89 11 119 -13 26 -17 26 -41
7z"/>
<path d="M1511 875 c-19 -13 -38 -22 -43 -19 -5 4 -23 -8 -40 -25 -34 -34 -53
-38 -92 -17 -26 13 -29 12 -64 -27 -20 -22 -52 -56 -70 -75 -42 -44 -36 -62
23 -63 47 -2 50 -2 75 -11 15 -6 33 -11 98 -28 18 -4 35 -4 37 1 3 5 24 13 45
19 45 12 70 49 67 96 -2 26 1 29 25 26 22 -2 27 2 33 28 4 16 11 32 16 35 5 4
9 18 9 33 0 20 -8 30 -27 40 -37 17 -53 15 -92 -13z"/>
<path d="M910 720 c0 -32 -19 -80 -31 -80 -5 0 -14 -18 -20 -40 -7 -22 -18
-45 -26 -51 -7 -6 -13 -20 -13 -30 0 -10 -4 -21 -10 -24 -5 -3 -10 -19 -10
-34 0 -15 -9 -37 -20 -48 -15 -17 -20 -39 -23 -113 -2 -50 1 -94 6 -97 20 -12
71 69 62 98 -4 12 -1 27 8 37 9 9 17 35 19 57 3 35 6 40 28 40 18 0 27 8 35
30 5 17 16 35 22 40 16 12 18 48 5 99 -6 21 -8 62 -5 92 5 46 3 54 -11 54 -11
0 -16 -9 -16 -30z"/>
<path d="M1580 516 c-34 -18 -49 -33 -59 -62 -12 -33 -12 -39 4 -50 25 -18 15
-50 -14 -46 -15 2 -21 0 -16 -7 3 -6 -2 -14 -12 -18 -67 -24 -125 -110 -103
-151 5 -10 11 -29 14 -43 9 -42 49 -94 76 -97 19 -2 22 -1 10 7 -19 13 -13 17
32 24 36 5 37 5 25 -15 -9 -16 -9 -22 1 -25 6 -3 12 -11 12 -19 0 -12 34 -14
197 -14 144 0 194 3 186 11 -8 8 -3 26 18 67 32 62 39 122 14 122 -8 0 -15 9
-15 20 0 14 -9 21 -34 26 -19 3 -40 3 -46 -1 -6 -4 -20 1 -30 10 -16 15 -30
16 -80 11 -68 -8 -120 7 -120 35 0 21 87 44 130 35 22 -4 43 3 83 25 53 31 53
32 51 75 -4 54 -20 88 -41 80 -8 -4 -35 -9 -59 -12 -35 -4 -50 0 -71 16 -35
27 -96 25 -153 -4z m18 -221 c-7 -7 -38 23 -38 36 0 5 10 1 22 -11 12 -11 19
-22 16 -25z"/>
<path d="M1148 502 c-34 -2 -51 -9 -58 -22 -10 -19 -4 -50 11 -50 8 0 6 -40
-7 -113 -5 -31 -2 -43 15 -60 19 -21 19 -25 6 -51 -8 -16 -15 -42 -15 -60 0
-17 -4 -26 -8 -21 -4 6 -16 15 -27 21 -12 6 -22 25 -25 44 -4 27 -11 35 -34
41 -16 5 -33 6 -38 3 -18 -12 -46 -82 -52 -134 -3 -30 -9 -65 -12 -78 l-7 -23
119 3 119 3 13 28 c10 21 11 32 3 40 -18 18 -13 33 15 45 20 10 24 17 19 35
-6 21 -5 21 14 -3 l21 -25 0 28 c0 48 12 37 58 -54 2 -4 -5 -6 -15 -5 -13 1
-17 -5 -15 -21 2 -15 -2 -23 -12 -23 -21 0 -86 -32 -86 -42 0 -4 50 -8 110 -8
l110 0 -26 42 c-15 24 -32 50 -39 58 -7 8 -23 33 -35 54 -18 34 -21 49 -15 95
4 31 13 68 21 83 19 36 18 68 -1 68 -12 0 -15 10 -13 40 1 22 -2 44 -8 49 -13
12 -52 17 -106 13z"/>
<path d="M3562 410 c-16 -21 -31 -30 -50 -30 -31 0 -52 -16 -52 -39 0 -27 77
-116 119 -138 52 -28 88 -29 121 -3 14 11 31 20 38 20 21 0 15 74 -9 96 -12
11 -18 26 -15 37 6 23 -22 52 -70 72 -50 21 -57 19 -82 -15z"/>
<path d="M2950 404 c0 -25 -45 -58 -67 -50 -12 5 -13 0 -8 -23 5 -25 3 -29
-20 -35 -22 -6 -26 -11 -21 -30 3 -13 -1 -32 -10 -44 -14 -21 -13 -25 20 -65
20 -24 51 -52 70 -62 30 -16 32 -20 19 -30 -21 -15 -9 -51 20 -59 12 -3 116
-6 230 -6 202 0 207 1 197 19 -5 11 -7 26 -4 35 3 8 -7 28 -25 47 -20 20 -29
39 -26 49 4 11 -3 23 -17 33 -38 25 -104 93 -122 123 -10 16 -35 38 -57 48
-22 11 -49 32 -60 48 -18 25 -26 27 -70 25 -42 -2 -49 -5 -49 -23z"/>
<path d="M851 243 c0 -38 -24 -116 -41 -133 -11 -11 -16 -27 -13 -38 2 -11 0
-23 -6 -26 -16 -10 -13 -46 3 -46 8 0 18 10 21 23 4 12 25 66 47 119 22 53 37
102 33 108 -10 17 -44 12 -44 -7z"/>
<path d="M2205 200 c-37 -38 -34 -89 5 -118 34 -25 39 -56 13 -71 -13 -7 74
-10 282 -10 165 0 294 3 288 6 -21 8 -134 153 -121 153 7 0 0 7 -15 15 -37 19
-89 14 -117 -13 -14 -13 -28 -18 -33 -13 -5 5 -17 1 -28 -10 -27 -27 -45 -24
-58 11 -5 17 -18 33 -28 36 -10 3 -26 10 -35 15 -10 5 -28 9 -41 9 -13 0 -27
3 -31 8 -16 16 -57 7 -81 -18z"/>
<path d="M3535 121 c-3 -6 -34 -9 -68 -8 l-62 2 -9 -42 c-15 -71 -9 -73 178
-73 l161 0 -30 24 c-16 13 -33 22 -36 20 -4 -2 -9 3 -13 11 -3 8 -10 15 -16
15 -6 0 -26 11 -43 24 -46 34 -55 37 -62 27z"/>
<path d="M2870 63 c0 -6 -3 -20 -6 -30 -7 -17 -6 -17 12 -1 14 14 16 21 6 30
-8 8 -12 9 -12 1z"/>
<path d="M1483 17 c5 -15 37 -22 37 -9 0 5 -9 12 -21 15 -13 3 -19 1 -16 -6z"/>
<path d="M3787 23 c-14 -13 -6 -23 18 -23 28 0 34 15 9 24 -19 7 -19 7 -27 -1z"/>
</g>
</svg>
